<svg width="238" height="44" viewBox="0 0 238 44" fill="none" xmlns="http://www.w3.org/2000/svg">
<path d="M9.036 35L0.792 9.8H6.84L14.004 32.12H10.98L18.468 9.8H23.868L31.068 32.12H28.152L35.496 9.8H41.076L32.832 35H26.568L20.196 15.416H21.852L15.3 35H9.036ZM52.1063 35.288C49.8983 35.288 47.9543 34.856 46.2743 33.992C44.6183 33.128 43.3343 31.952 42.4223 30.464C41.5103 28.952 41.0543 27.236 41.0543 25.316C41.0543 23.372 41.4983 21.656 42.3863 20.168C43.2983 18.656 44.5343 17.48 46.0943 16.64C47.6543 15.776 49.4183 15.344 51.3863 15.344C53.2823 15.344 54.9863 15.752 56.4983 16.568C58.0343 17.36 59.2463 18.512 60.1343 20.024C61.0223 21.512 61.4663 23.3 61.4663 25.388C61.4663 25.604 61.4543 25.856 61.4303 26.144C61.4063 26.408 61.3823 26.66 61.3583 26.9H45.6263V23.624H58.4063L56.2463 24.596C56.2463 23.588 56.0423 22.712 55.6343 21.968C55.2263 21.224 54.6623 20.648 53.9423 20.24C53.2223 19.808 52.3823 19.592 51.4223 19.592C50.4623 19.592 49.6103 19.808 48.8663 20.24C48.1463 20.648 47.5823 21.236 47.1743 22.004C46.7663 22.748 46.5623 23.636 46.5623 24.668V25.532C46.5623 26.588 46.7903 27.524 47.2463 28.34C47.7263 29.132 48.3863 29.744 49.2263 30.176C50.0903 30.584 51.0983 30.788 52.2503 30.788C53.2823 30.788 54.1823 30.632 54.9503 30.32C55.7423 30.008 56.4623 29.54 57.1103 28.916L60.0983 32.156C59.2103 33.164 58.0943 33.944 56.7503 34.496C55.4063 35.024 53.8583 35.288 52.1063 35.288ZM76.6533 35.288C74.9493 35.288 73.4853 34.928 72.2613 34.208C71.0373 33.488 70.1013 32.396 69.4533 30.932C68.8053 29.444 68.4813 27.572 68.4813 25.316C68.4813 23.036 68.8173 21.164 69.4893 19.7C70.1853 18.236 71.1453 17.144 72.3693 16.424C73.5933 15.704 75.0213 15.344 76.6533 15.344C78.4773 15.344 80.1093 15.752 81.5493 16.568C83.0133 17.384 84.1653 18.536 85.0053 20.024C85.8693 21.512 86.3013 23.276 86.3013 25.316C86.3013 27.332 85.8693 29.084 85.0053 30.572C84.1653 32.06 83.0133 33.224 81.5493 34.064C80.1093 34.88 78.4773 35.288 76.6533 35.288ZM65.2053 35V8.288H70.8213V19.556L70.4613 25.28L70.5693 31.04V35H65.2053ZM75.6813 30.68C76.6173 30.68 77.4453 30.464 78.1653 30.032C78.9093 29.6 79.4973 28.988 79.9293 28.196C80.3853 27.38 80.6133 26.42 80.6133 25.316C80.6133 24.188 80.3853 23.228 79.9293 22.436C79.4973 21.644 78.9093 21.032 78.1653 20.6C77.4453 20.168 76.6173 19.952 75.6813 19.952C74.7453 19.952 73.9053 20.168 73.1613 20.6C72.4173 21.032 71.8293 21.644 71.3973 22.436C70.9653 23.228 70.7493 24.188 70.7493 25.316C70.7493 26.42 70.9653 27.38 71.3973 28.196C71.8293 28.988 72.4173 29.6 73.1613 30.032C73.9053 30.464 74.7453 30.68 75.6813 30.68ZM90.4568 35V9.8H101.905C104.641 9.8 107.053 10.328 109.141 11.384C111.229 12.416 112.861 13.868 114.037 15.74C115.213 17.612 115.801 19.832 115.801 22.4C115.801 24.944 115.213 27.164 114.037 29.06C112.861 30.932 111.229 32.396 109.141 33.452C107.053 34.484 104.641 35 101.905 35H90.4568ZM96.2888 30.212H101.617C103.297 30.212 104.749 29.9 105.973 29.276C107.221 28.628 108.181 27.716 108.853 26.54C109.549 25.364 109.897 23.984 109.897 22.4C109.897 20.792 109.549 19.412 108.853 18.26C108.181 17.084 107.221 16.184 105.973 15.56C104.749 14.912 103.297 14.588 101.617 14.588H96.2888V30.212ZM129.415 35.288C127.207 35.288 125.263 34.856 123.583 33.992C121.927 33.128 120.643 31.952 119.731 30.464C118.819 28.952 118.363 27.236 118.363 25.316C118.363 23.372 118.807 21.656 119.695 20.168C120.607 18.656 121.843 17.48 123.403 16.64C124.963 15.776 126.727 15.344 128.695 15.344C130.591 15.344 132.295 15.752 133.807 16.568C135.343 17.36 136.555 18.512 137.443 20.024C138.331 21.512 138.775 23.3 138.775 25.388C138.775 25.604 138.763 25.856 138.739 26.144C138.715 26.408 138.691 26.66 138.667 26.9H122.935V23.624H135.715L133.555 24.596C133.555 23.588 133.351 22.712 132.943 21.968C132.535 21.224 131.971 20.648 131.251 20.24C130.531 19.808 129.691 19.592 128.731 19.592C127.771 19.592 126.919 19.808 126.175 20.24C125.455 20.648 124.891 21.236 124.483 22.004C124.075 22.748 123.871 23.636 123.871 24.668V25.532C123.871 26.588 124.099 27.524 124.555 28.34C125.035 29.132 125.695 29.744 126.535 30.176C127.399 30.584 128.407 30.788 129.559 30.788C130.591 30.788 131.491 30.632 132.259 30.32C133.051 30.008 133.771 29.54 134.419 28.916L137.407 32.156C136.519 33.164 135.403 33.944 134.059 34.496C132.715 35.024 131.167 35.288 129.415 35.288ZM147.418 35L139.282 15.632H145.078L151.846 32.3H148.966L155.986 15.632H161.386L153.214 35H147.418Z" fill="#333333"/>
<path d="M169.294 29.24L168.97 22.508L181.03 9.8H187.51L176.638 21.5L173.398 24.956L169.294 29.24ZM164.074 35V9.8H169.87V35H164.074ZM181.318 35L172.354 24.02L176.17 19.88L188.122 35H181.318ZM201.976 35.432C199.984 35.432 198.148 35.12 196.468 34.496C194.812 33.848 193.36 32.936 192.112 31.76C190.888 30.584 189.928 29.204 189.232 27.62C188.56 26.036 188.224 24.296 188.224 22.4C188.224 20.504 188.56 18.764 189.232 17.18C189.928 15.596 190.9 14.216 192.148 13.04C193.396 11.864 194.86 10.964 196.54 10.34C198.22 9.692 200.068 9.368 202.084 9.368C204.316 9.368 206.32 9.74 208.096 10.484C209.896 11.228 211.408 12.308 212.632 13.724L208.888 17.18C207.976 16.22 206.98 15.512 205.9 15.056C204.82 14.576 203.644 14.336 202.372 14.336C201.148 14.336 200.032 14.528 199.024 14.912C198.016 15.296 197.14 15.848 196.396 16.568C195.676 17.288 195.112 18.14 194.704 19.124C194.32 20.108 194.128 21.2 194.128 22.4C194.128 23.576 194.32 24.656 194.704 25.64C195.112 26.624 195.676 27.488 196.396 28.232C197.14 28.952 198.004 29.504 198.988 29.888C199.996 30.272 201.1 30.464 202.3 30.464C203.452 30.464 204.568 30.284 205.648 29.924C206.752 29.54 207.82 28.904 208.852 28.016L212.164 32.228C210.796 33.26 209.2 34.052 207.376 34.604C205.576 35.156 203.776 35.432 201.976 35.432ZM206.836 31.472V22.004H212.164V32.228L206.836 31.472Z" fill="#4D2CC7"/>
<circle cx="227" cy="33" r="11" fill="#FF7A00"/>
</svg>
