<svg aria-hidden="true" style="position: absolute; width: 0; height: 0; overflow: hidden;" version="1.1" xmlns="http://www.w3.org/2000/svg" xmlns:xlink="http://www.w3.org/1999/xlink">
<defs>
<symbol id="icon-play-button" viewBox="0 0 32 32">
<path d="M16 0c-8.823 0-16 7.178-16 16s7.177 16 16 16c8.823 0 16-7.178 16-16s-7.177-16-16-16zM22.361 16.561l-9.333 6c-0.109 0.071-0.236 0.106-0.361 0.106-0.109 0-0.22-0.027-0.319-0.081-0.215-0.117-0.348-0.341-0.348-0.585v-12c0-0.244 0.133-0.468 0.348-0.585 0.211-0.116 0.475-0.109 0.68 0.025l9.333 6c0.19 0.122 0.306 0.334 0.306 0.561s-0.116 0.438-0.306 0.561z"></path>
</symbol>
<symbol id="icon-quotation-mark" viewBox="0 0 32 32">
<path d="M11.117 16h-4.883v-3.906c0-2.155 1.752-3.906 3.906-3.906h0.488c0.812 0 1.465-0.653 1.465-1.465v-2.93c0-0.812-0.653-1.465-1.465-1.465h-0.488c-5.396 0-9.766 4.37-9.766 9.766v14.648c0 1.617 1.312 2.93 2.93 2.93h7.813c1.617 0 2.93-1.312 2.93-2.93v-7.812c0-1.617-1.312-2.93-2.93-2.93z"></path>
<path d="M28.695 16h-4.883v-3.906c0-2.155 1.752-3.906 3.906-3.906h0.488c0.812 0 1.465-0.653 1.465-1.465v-2.93c0-0.812-0.653-1.465-1.465-1.465h-0.488c-5.396 0-9.766 4.37-9.766 9.766v14.648c0 1.617 1.312 2.93 2.93 2.93h7.812c1.617 0 2.93-1.312 2.93-2.93v-7.812c0-1.617-1.312-2.93-2.93-2.93z"></path>
</symbol>
<symbol id="icon-arrow-right" viewBox="0 0 122 32">
<path d="M121.414 17.414c0.781-0.781 0.781-2.047 0-2.828l-12.728-12.728c-0.781-0.781-2.047-0.781-2.829 0s-0.781 2.047 0 2.828l11.314 11.314-11.314 11.314c-0.781 0.781-0.781 2.047 0 2.828s2.047 0.781 2.829 0l12.728-12.728zM0 18h120v-4h-120v4z"></path>
</symbol>
<symbol id="icon-arrow-left" viewBox="0 0 122 32">
<path d="M0.586 14.586c-0.781 0.781-0.781 2.047 0 2.828l12.728 12.728c0.781 0.781 2.047 0.781 2.828 0s0.781-2.047 0-2.828l-11.314-11.314 11.314-11.314c0.781-0.781 0.781-2.047 0-2.828s-2.047-0.781-2.828 0l-12.728 12.728zM122 14l-120 0v4l120-0v-4z"></path>
</symbol>
<symbol id="icon-linkedin" viewBox="0 0 32 32">
<path d="M28.8 0h-25.6c-1.76 0-3.2 1.44-3.2 3.2v25.6c0 1.76 1.44 3.2 3.2 3.2h25.6c1.76 0 3.2-1.44 3.2-3.2v-25.6c0-1.76-1.44-3.2-3.2-3.2zM9.6 27.2h-4.8v-14.4h4.8v14.4zM7.2 10.080c-1.6 0-2.88-1.28-2.88-2.88s1.28-2.88 2.88-2.88c1.6 0 2.88 1.28 2.88 2.88s-1.28 2.88-2.88 2.88zM27.2 27.2h-4.8v-8.48c0-1.28-1.12-2.4-2.4-2.4s-2.4 1.12-2.4 2.4v8.48h-4.8v-14.4h4.8v1.92c0.8-1.28 2.56-2.24 4-2.24 3.040 0 5.6 2.56 5.6 5.6v9.12z"></path>
</symbol>
<symbol id="icon-facebook" viewBox="0 0 32 32">
<path d="M26.25 2.25h-20.5c-0.928 0-1.818 0.369-2.475 1.025s-1.025 1.547-1.025 2.475v20.5c0 0.928 0.369 1.818 1.025 2.475s1.547 1.025 2.475 1.025h10.042v-11.442h-2.288v-4.577h2.27v-2.068c0-1.872 0.892-4.797 4.816-4.797l3.535 0.014v3.921h-2.567c-0.417 0-1.011 0.208-1.011 1.099v1.83h3.637l-0.418 4.577h-3.397v11.442h5.881c0.46 0 0.915-0.090 1.339-0.266s0.811-0.434 1.135-0.759c0.325-0.325 0.583-0.711 0.759-1.135s0.266-0.88 0.266-1.339v-20.5c0-0.46-0.090-0.915-0.266-1.339s-0.434-0.81-0.759-1.135c-0.325-0.325-0.711-0.583-1.135-0.759s-0.88-0.266-1.339-0.266z"></path>
</symbol>
<symbol id="icon-behance" viewBox="0 0 32 32">
<path d="M16.484 19.929c0-2.464-1.172-4.285-3.593-4.968 1.767-0.841 2.688-2.116 2.688-4.099 0-3.909-2.923-4.863-6.295-4.863h-9.284v19.628h9.544c3.579 0 6.94-1.711 6.94-5.699zM4.328 9.351h4.061c1.561 0 2.967 0.437 2.967 2.243 0 1.667-1.093 2.337-2.64 2.337h-4.388v-4.58zM4.327 22.295v-5.405h4.717c1.905 0 3.111 0.792 3.111 2.803 0 1.983-1.439 2.603-3.2 2.603h-4.628z"></path>
<path d="M25.061 26c3.405 0 5.611-1.529 6.672-4.78h-3.456c-0.372 1.213-1.905 1.855-3.095 1.855-2.295 0-3.5-1.34-3.5-3.617h10.284c0.325-4.557-2.213-8.441-6.907-8.441-4.345 0-7.295 3.256-7.295 7.521 0 4.427 2.795 7.463 7.296 7.463zM24.939 13.965c1.967 0 2.956 1.152 3.121 3.036h-6.372c0.129-1.868 1.373-3.036 3.251-3.036z"></path>
<path d="M20.889 7.031h7.984v1.933h-7.984v-1.933z"></path>
</symbol>
<symbol id="icon-dribbble" viewBox="0 0 32 32">
<path d="M16 0c-8.822 0-16 7.178-16 16s7.178 16 16 16c8.822 0 16-7.178 16-16s-7.178-16-16-16zM16 30c-7.72 0-14-6.282-14-14 0-7.72 6.28-14 14-14 7.718 0 14 6.28 14 14 0 7.718-6.282 14-14 14z"></path>
<path d="M16 4c-0.84 0-1.66 0.088-2.452 0.252 1.456 2.064 2.778 4.212 3.942 6.438 2.202-1.026 4.274-2.35 6.166-3.93-2.078-1.724-4.746-2.76-7.656-2.76z"></path>
<path d="M25.082 8.172c-2.058 1.734-4.322 3.172-6.726 4.296 0.526 1.096 1.014 2.206 1.466 3.334 2.656-0.546 5.42-0.596 8.16-0.142-0.080-2.86-1.156-5.468-2.9-7.488z"></path>
<path d="M11.54 4.866c-3.602 1.444-6.334 4.58-7.222 8.43 3.884 0.166 7.728-0.482 11.306-1.848-1.202-2.282-2.564-4.482-4.084-6.582z"></path>
<path d="M16.52 13.258c-3.464 1.35-7.164 2.086-10.926 2.086-0.518 0-1.038-0.032-1.558-0.060-0.014 0.238-0.036 0.474-0.036 0.716 0 2.946 1.066 5.642 2.828 7.73 2.882-3.578 6.756-6.142 11.044-7.43-0.418-1.028-0.87-2.040-1.352-3.042z"></path>
<path d="M20.556 17.696c0.954 2.66 1.702 5.394 2.25 8.182 2.704-1.866 4.592-4.812 5.066-8.216-2.452-0.434-4.93-0.414-7.316 0.034z"></path>
<path d="M18.592 18.16c-4.032 1.178-7.674 3.598-10.344 6.992 2.092 1.774 4.794 2.848 7.752 2.848 1.776 0 3.458-0.396 4.974-1.090-0.55-2.988-1.35-5.912-2.382-8.75z"></path>
</symbol>
<symbol id="icon-twitter" viewBox="0 0 32 32">
<path d="M28.768 8.064c-0.96 0.416-1.952 0.704-3.008 0.832 1.088-0.64 1.92-1.664 2.304-2.912-1.024 0.608-2.144 1.024-3.328 1.28-0.96-1.024-2.336-1.664-3.84-1.664-2.912 0-5.248 2.368-5.248 5.248 0 0.416 0.032 0.8 0.128 1.184-4.352-0.192-8.192-2.304-10.784-5.472-1.856 3.328 0.224 6.080 1.6 7.008-0.832 0-1.664-0.256-2.368-0.64 0 2.592 1.824 4.736 4.192 5.216-0.512 0.16-1.664 0.256-2.368 0.096 0.672 2.080 2.624 3.616 4.896 3.648-1.792 1.408-4.416 2.528-7.776 2.176 2.336 1.504 5.088 2.368 8.064 2.368 9.664 0 14.912-8 14.912-14.912 0-0.224 0-0.448-0.032-0.672 1.088-0.8 1.984-1.728 2.656-2.784z"></path>
</symbol>
<symbol id="icon-arrow-down" viewBox="0 0 32 32">
<path d="M16.513 31.788l7.273-7.273c0.305-0.261 0.341-0.72 0.079-1.025s-0.72-0.341-1.025-0.079c-0.028 0.024-0.055 0.051-0.079 0.079l-6.036 6.029v-28.792c0-0.402-0.326-0.727-0.727-0.727s-0.727 0.326-0.727 0.727v28.792l-6.029-6.029c-0.261-0.305-0.72-0.341-1.025-0.079s-0.341 0.72-0.079 1.025c0.024 0.028 0.051 0.055 0.079 0.079l7.273 7.273c0.284 0.282 0.742 0.282 1.025-0z"></path>
</symbol>
<symbol id="icon-hamburger" viewBox="0 0 32 32">
<path d="M2 7c0 0.265 0.105 0.52 0.293 0.707s0.442 0.293 0.707 0.293h26c0.265 0 0.52-0.105 0.707-0.293s0.293-0.442 0.293-0.707-0.105-0.52-0.293-0.707c-0.188-0.188-0.442-0.293-0.707-0.293h-26c-0.265 0-0.52 0.105-0.707 0.293s-0.293 0.442-0.293 0.707zM7 15h22c0.265 0 0.52 0.105 0.707 0.293s0.293 0.442 0.293 0.707-0.105 0.52-0.293 0.707c-0.188 0.188-0.442 0.293-0.707 0.293h-22c-0.265 0-0.52-0.105-0.707-0.293s-0.293-0.442-0.293-0.707 0.105-0.52 0.293-0.707c0.188-0.188 0.442-0.293 0.707-0.293zM16 24h13c0.265 0 0.52 0.105 0.707 0.293s0.293 0.442 0.293 0.707-0.105 0.52-0.293 0.707c-0.188 0.188-0.442 0.293-0.707 0.293h-13c-0.265 0-0.52-0.105-0.707-0.293s-0.293-0.442-0.293-0.707 0.105-0.52 0.293-0.707c0.188-0.188 0.442-0.293 0.707-0.293z"></path>
</symbol>
</defs>
</svg>
